<mxfile host="app.diagrams.net" modified="2023-09-07T10:08:43.652Z" agent="Mozilla/5.0 (Windows NT 10.0; Win64; x64) AppleWebKit/537.36 (KHTML, like Gecko) Chrome/116.0.0.0 Safari/537.36 Edg/116.0.1938.69" etag="b1KzP1TtKLaXAuesL8JL" version="21.7.2" type="device">
  <diagram id="C5RBs43oDa-KdzZeNtuy" name="Page-1">
    <mxGraphModel dx="1434" dy="908" grid="1" gridSize="10" guides="1" tooltips="1" connect="1" arrows="1" fold="1" page="1" pageScale="1" pageWidth="827" pageHeight="1169" math="0" shadow="0">
      <root>
        <mxCell id="WIyWlLk6GJQsqaUBKTNV-0" />
        <mxCell id="WIyWlLk6GJQsqaUBKTNV-1" parent="WIyWlLk6GJQsqaUBKTNV-0" />
        <mxCell id="psS4nozfvyv1LZc-Vnwu-4" style="edgeStyle=orthogonalEdgeStyle;rounded=0;orthogonalLoop=1;jettySize=auto;html=1;" edge="1" parent="WIyWlLk6GJQsqaUBKTNV-1" source="psS4nozfvyv1LZc-Vnwu-0" target="psS4nozfvyv1LZc-Vnwu-1">
          <mxGeometry relative="1" as="geometry" />
        </mxCell>
        <mxCell id="psS4nozfvyv1LZc-Vnwu-0" value="Start" style="ellipse;whiteSpace=wrap;html=1;" vertex="1" parent="WIyWlLk6GJQsqaUBKTNV-1">
          <mxGeometry x="374" y="30" width="80" height="30" as="geometry" />
        </mxCell>
        <mxCell id="psS4nozfvyv1LZc-Vnwu-5" style="edgeStyle=orthogonalEdgeStyle;rounded=0;orthogonalLoop=1;jettySize=auto;html=1;entryX=0.45;entryY=-0.017;entryDx=0;entryDy=0;entryPerimeter=0;" edge="1" parent="WIyWlLk6GJQsqaUBKTNV-1" source="psS4nozfvyv1LZc-Vnwu-1" target="psS4nozfvyv1LZc-Vnwu-2">
          <mxGeometry relative="1" as="geometry">
            <Array as="points">
              <mxPoint x="134" y="120" />
            </Array>
          </mxGeometry>
        </mxCell>
        <mxCell id="psS4nozfvyv1LZc-Vnwu-6" style="edgeStyle=orthogonalEdgeStyle;rounded=0;orthogonalLoop=1;jettySize=auto;html=1;" edge="1" parent="WIyWlLk6GJQsqaUBKTNV-1" source="psS4nozfvyv1LZc-Vnwu-1" target="psS4nozfvyv1LZc-Vnwu-3">
          <mxGeometry relative="1" as="geometry">
            <Array as="points">
              <mxPoint x="690" y="120" />
            </Array>
          </mxGeometry>
        </mxCell>
        <mxCell id="psS4nozfvyv1LZc-Vnwu-1" value="1 or 2 Players?" style="rhombus;whiteSpace=wrap;html=1;" vertex="1" parent="WIyWlLk6GJQsqaUBKTNV-1">
          <mxGeometry x="359" y="90" width="110" height="60" as="geometry" />
        </mxCell>
        <mxCell id="psS4nozfvyv1LZc-Vnwu-8" style="edgeStyle=orthogonalEdgeStyle;rounded=0;orthogonalLoop=1;jettySize=auto;html=1;entryX=0.5;entryY=0;entryDx=0;entryDy=0;" edge="1" parent="WIyWlLk6GJQsqaUBKTNV-1" source="psS4nozfvyv1LZc-Vnwu-2" target="psS4nozfvyv1LZc-Vnwu-7">
          <mxGeometry relative="1" as="geometry" />
        </mxCell>
        <mxCell id="psS4nozfvyv1LZc-Vnwu-2" value="Mode&amp;nbsp;= OnePlayer" style="rounded=1;whiteSpace=wrap;html=1;" vertex="1" parent="WIyWlLk6GJQsqaUBKTNV-1">
          <mxGeometry x="80" y="200" width="120" height="60" as="geometry" />
        </mxCell>
        <mxCell id="psS4nozfvyv1LZc-Vnwu-9" style="edgeStyle=orthogonalEdgeStyle;rounded=0;orthogonalLoop=1;jettySize=auto;html=1;" edge="1" parent="WIyWlLk6GJQsqaUBKTNV-1" source="psS4nozfvyv1LZc-Vnwu-3" target="psS4nozfvyv1LZc-Vnwu-7">
          <mxGeometry relative="1" as="geometry" />
        </mxCell>
        <mxCell id="psS4nozfvyv1LZc-Vnwu-3" value="STATE = TwoPlayer" style="rounded=1;whiteSpace=wrap;html=1;" vertex="1" parent="WIyWlLk6GJQsqaUBKTNV-1">
          <mxGeometry x="630" y="200" width="120" height="60" as="geometry" />
        </mxCell>
        <mxCell id="psS4nozfvyv1LZc-Vnwu-11" style="edgeStyle=orthogonalEdgeStyle;rounded=0;orthogonalLoop=1;jettySize=auto;html=1;entryX=0.5;entryY=0;entryDx=0;entryDy=0;" edge="1" parent="WIyWlLk6GJQsqaUBKTNV-1" source="psS4nozfvyv1LZc-Vnwu-7" target="psS4nozfvyv1LZc-Vnwu-10">
          <mxGeometry relative="1" as="geometry" />
        </mxCell>
        <mxCell id="psS4nozfvyv1LZc-Vnwu-7" value="Player1: X, O, Rand?" style="rhombus;whiteSpace=wrap;html=1;" vertex="1" parent="WIyWlLk6GJQsqaUBKTNV-1">
          <mxGeometry x="361" y="280" width="106" height="100" as="geometry" />
        </mxCell>
        <mxCell id="psS4nozfvyv1LZc-Vnwu-14" style="edgeStyle=orthogonalEdgeStyle;rounded=0;orthogonalLoop=1;jettySize=auto;html=1;" edge="1" parent="WIyWlLk6GJQsqaUBKTNV-1" source="psS4nozfvyv1LZc-Vnwu-10" target="psS4nozfvyv1LZc-Vnwu-12">
          <mxGeometry relative="1" as="geometry" />
        </mxCell>
        <mxCell id="psS4nozfvyv1LZc-Vnwu-10" value="Assign Suit to Players" style="rounded=1;whiteSpace=wrap;html=1;" vertex="1" parent="WIyWlLk6GJQsqaUBKTNV-1">
          <mxGeometry x="354" y="410" width="120" height="60" as="geometry" />
        </mxCell>
        <mxCell id="psS4nozfvyv1LZc-Vnwu-15" style="edgeStyle=orthogonalEdgeStyle;rounded=0;orthogonalLoop=1;jettySize=auto;html=1;entryX=0.633;entryY=0.05;entryDx=0;entryDy=0;entryPerimeter=0;" edge="1" parent="WIyWlLk6GJQsqaUBKTNV-1" source="psS4nozfvyv1LZc-Vnwu-12" target="psS4nozfvyv1LZc-Vnwu-13">
          <mxGeometry relative="1" as="geometry" />
        </mxCell>
        <mxCell id="psS4nozfvyv1LZc-Vnwu-12" value="Player O starts" style="shape=parallelogram;perimeter=parallelogramPerimeter;whiteSpace=wrap;html=1;fixedSize=1;" vertex="1" parent="WIyWlLk6GJQsqaUBKTNV-1">
          <mxGeometry x="354" y="500" width="120" height="60" as="geometry" />
        </mxCell>
        <mxCell id="psS4nozfvyv1LZc-Vnwu-17" style="edgeStyle=orthogonalEdgeStyle;rounded=0;orthogonalLoop=1;jettySize=auto;html=1;entryX=0.567;entryY=-0.083;entryDx=0;entryDy=0;entryPerimeter=0;" edge="1" parent="WIyWlLk6GJQsqaUBKTNV-1" source="psS4nozfvyv1LZc-Vnwu-13" target="psS4nozfvyv1LZc-Vnwu-16">
          <mxGeometry relative="1" as="geometry" />
        </mxCell>
        <mxCell id="psS4nozfvyv1LZc-Vnwu-13" value="Next Player" style="shape=parallelogram;perimeter=parallelogramPerimeter;whiteSpace=wrap;html=1;fixedSize=1;" vertex="1" parent="WIyWlLk6GJQsqaUBKTNV-1">
          <mxGeometry x="294" y="640" width="120" height="60" as="geometry" />
        </mxCell>
        <mxCell id="psS4nozfvyv1LZc-Vnwu-20" style="edgeStyle=orthogonalEdgeStyle;rounded=0;orthogonalLoop=1;jettySize=auto;html=1;entryX=0.588;entryY=0.113;entryDx=0;entryDy=0;entryPerimeter=0;" edge="1" parent="WIyWlLk6GJQsqaUBKTNV-1" source="psS4nozfvyv1LZc-Vnwu-16" target="psS4nozfvyv1LZc-Vnwu-18">
          <mxGeometry relative="1" as="geometry" />
        </mxCell>
        <mxCell id="psS4nozfvyv1LZc-Vnwu-16" value="STATE = Validation" style="rounded=1;whiteSpace=wrap;html=1;" vertex="1" parent="WIyWlLk6GJQsqaUBKTNV-1">
          <mxGeometry x="294" y="740" width="120" height="60" as="geometry" />
        </mxCell>
        <mxCell id="psS4nozfvyv1LZc-Vnwu-19" value="NO" style="edgeStyle=orthogonalEdgeStyle;rounded=0;orthogonalLoop=1;jettySize=auto;html=1;entryX=1;entryY=0.5;entryDx=0;entryDy=0;" edge="1" parent="WIyWlLk6GJQsqaUBKTNV-1" source="psS4nozfvyv1LZc-Vnwu-18" target="psS4nozfvyv1LZc-Vnwu-13">
          <mxGeometry relative="1" as="geometry">
            <Array as="points">
              <mxPoint x="510" y="860" />
              <mxPoint x="510" y="670" />
            </Array>
          </mxGeometry>
        </mxCell>
        <mxCell id="psS4nozfvyv1LZc-Vnwu-22" value="yes" style="edgeStyle=orthogonalEdgeStyle;rounded=0;orthogonalLoop=1;jettySize=auto;html=1;entryX=0.5;entryY=0;entryDx=0;entryDy=0;" edge="1" parent="WIyWlLk6GJQsqaUBKTNV-1" source="psS4nozfvyv1LZc-Vnwu-18">
          <mxGeometry relative="1" as="geometry">
            <mxPoint x="354" y="950" as="targetPoint" />
          </mxGeometry>
        </mxCell>
        <mxCell id="psS4nozfvyv1LZc-Vnwu-18" value="Is Win/Draw?" style="rhombus;whiteSpace=wrap;html=1;" vertex="1" parent="WIyWlLk6GJQsqaUBKTNV-1">
          <mxGeometry x="314" y="820" width="80" height="80" as="geometry" />
        </mxCell>
        <mxCell id="psS4nozfvyv1LZc-Vnwu-26" value="DRAW" style="edgeStyle=orthogonalEdgeStyle;rounded=0;orthogonalLoop=1;jettySize=auto;html=1;entryX=0;entryY=0.5;entryDx=0;entryDy=0;" edge="1" parent="WIyWlLk6GJQsqaUBKTNV-1" source="psS4nozfvyv1LZc-Vnwu-23" target="psS4nozfvyv1LZc-Vnwu-24">
          <mxGeometry relative="1" as="geometry" />
        </mxCell>
        <mxCell id="psS4nozfvyv1LZc-Vnwu-27" value="WIN" style="edgeStyle=orthogonalEdgeStyle;rounded=0;orthogonalLoop=1;jettySize=auto;html=1;entryX=1;entryY=0.5;entryDx=0;entryDy=0;" edge="1" parent="WIyWlLk6GJQsqaUBKTNV-1" source="psS4nozfvyv1LZc-Vnwu-23" target="psS4nozfvyv1LZc-Vnwu-25">
          <mxGeometry relative="1" as="geometry" />
        </mxCell>
        <mxCell id="psS4nozfvyv1LZc-Vnwu-23" value="Win or Draw" style="rhombus;whiteSpace=wrap;html=1;" vertex="1" parent="WIyWlLk6GJQsqaUBKTNV-1">
          <mxGeometry x="314" y="950" width="80" height="80" as="geometry" />
        </mxCell>
        <mxCell id="psS4nozfvyv1LZc-Vnwu-30" style="edgeStyle=orthogonalEdgeStyle;rounded=0;orthogonalLoop=1;jettySize=auto;html=1;entryX=1;entryY=0.5;entryDx=0;entryDy=0;" edge="1" parent="WIyWlLk6GJQsqaUBKTNV-1" source="psS4nozfvyv1LZc-Vnwu-24" target="psS4nozfvyv1LZc-Vnwu-28">
          <mxGeometry relative="1" as="geometry">
            <Array as="points">
              <mxPoint x="534" y="1115" />
            </Array>
          </mxGeometry>
        </mxCell>
        <mxCell id="psS4nozfvyv1LZc-Vnwu-24" value="STATE = Draw" style="rounded=1;whiteSpace=wrap;html=1;" vertex="1" parent="WIyWlLk6GJQsqaUBKTNV-1">
          <mxGeometry x="474" y="960" width="120" height="60" as="geometry" />
        </mxCell>
        <mxCell id="psS4nozfvyv1LZc-Vnwu-29" style="edgeStyle=orthogonalEdgeStyle;rounded=0;orthogonalLoop=1;jettySize=auto;html=1;" edge="1" parent="WIyWlLk6GJQsqaUBKTNV-1" source="psS4nozfvyv1LZc-Vnwu-25" target="psS4nozfvyv1LZc-Vnwu-28">
          <mxGeometry relative="1" as="geometry">
            <Array as="points">
              <mxPoint x="190" y="1115" />
            </Array>
          </mxGeometry>
        </mxCell>
        <mxCell id="psS4nozfvyv1LZc-Vnwu-25" value="STATE = WIn" style="rounded=1;whiteSpace=wrap;html=1;" vertex="1" parent="WIyWlLk6GJQsqaUBKTNV-1">
          <mxGeometry x="130" y="960" width="120" height="60" as="geometry" />
        </mxCell>
        <mxCell id="psS4nozfvyv1LZc-Vnwu-28" value="STOP" style="ellipse;whiteSpace=wrap;html=1;" vertex="1" parent="WIyWlLk6GJQsqaUBKTNV-1">
          <mxGeometry x="340" y="1100" width="74" height="30" as="geometry" />
        </mxCell>
      </root>
    </mxGraphModel>
  </diagram>
</mxfile>
